<?xml version="1.0" encoding="utf-8"?>
<!-- Generator: Adobe Illustrator 28.2.0, SVG Export Plug-In . SVG Version: 6.00 Build 0)  -->
<svg version="1.1" id="Layer_1" xmlns="http://www.w3.org/2000/svg" xmlns:xlink="http://www.w3.org/1999/xlink" x="0px" y="0px"
	 viewBox="0 0 512 512" style="enable-background:new 0 0 512 512;" xml:space="preserve">
<path d="M408.27,237.39l0.18-0.04c18.99-3.7,36.02-12.98,49.24-26.05l0.36-0.38c17.42-17.42,28.22-41.54,28.22-68.13
	c0-16.6-4.2-32.24-11.56-45.84c-7.64-14.13-18.75-26.13-32.18-34.89c-3.56-2.33-4.56-7.11-2.23-10.67s7.11-4.56,10.67-2.23
	c15.54,10.15,28.42,24.1,37.3,40.5c8.56,15.8,13.43,33.93,13.43,53.14c0,30.87-12.52,58.83-32.74,79.04l-0.46,0.42
	c-13.93,13.75-31.41,23.9-50.97,28.88V430.1c0,9.02-3.7,17.26-9.65,23.21c-5.99,5.97-14.21,9.69-23.25,9.69h-27.77
	c-4.26,0-7.72-3.46-7.72-7.72c0-4.26,3.46-7.72,7.72-7.72h27.77c4.8,0,9.18-1.97,12.34-5.1c3.16-3.16,5.1-7.54,5.1-12.34v-176.2
	c-4,0.44-8.08,0.66-12.2,0.66c-30.87,0-58.83-12.52-79.04-32.74c-11.82-11.82-21.02-26.31-26.61-42.47H39.73v44.22
	c0,4.26-3.46,7.72-7.72,7.72c-4.26,0-7.72-3.46-7.72-7.72v-91.59c0-9,3.7-17.22,9.63-23.19l0.04-0.04
	c5.95-5.95,14.19-9.67,23.19-9.67h229.78c5.67-13.3,13.81-25.28,23.88-35.35C331.03,43.5,359.01,31,389.85,31
	c4.62,0,9.35,0.3,14.15,0.9l0.24,0.04c4.66,0.6,9.23,1.49,13.63,2.63c4.1,1.07,6.57,5.27,5.51,9.37c-1.07,4.1-5.27,6.57-9.37,5.51
	c-3.84-0.98-7.76-1.77-11.72-2.25l-0.24-0.04c-3.82-0.48-7.92-0.74-12.2-0.74c-26.61,0-50.71,10.79-68.13,28.22
	c-9.73,9.71-17.38,21.5-22.25,34.65l-0.06,0.18l-0.06,0.16v0.02c-3.76,10.33-5.83,21.46-5.83,33.12c0,9.22,1.31,18.13,3.72,26.59
	l0.06,0.18l0.04,0.18c4.58,15.78,13.08,29.89,24.4,41.2c17.42,17.42,41.52,28.22,68.13,28.22c6.29,0,12.4-0.6,18.35-1.75
	L408.27,237.39z M321.67,129.96l17.99,14.15c5.63-5.71,12.22-10.49,19.56-14.05c9.29-4.52,19.74-7.05,30.71-7.05
	c10.97,0,21.4,2.55,30.71,7.05c7.32,3.56,13.93,8.34,19.56,14.05l17.99-14.15c-7.82-8.4-17.14-15.35-27.55-20.4
	c-12.28-5.95-26.09-9.31-40.68-9.31c-14.61,0-28.42,3.36-40.68,9.31c-10.41,5.04-19.74,12.02-27.55,20.4H321.67z M351.85,153.72
	l18.23,14.33c1.77-1.39,3.72-2.59,5.77-3.6c4.26-2.09,9.02-3.26,14.07-3.26c5.02,0,9.81,1.17,14.07,3.24l0.46,0.24
	c1.89,0.96,3.66,2.07,5.31,3.36l18.21-14.33c-4.12-3.96-8.86-7.28-14.03-9.79c-7.23-3.52-15.39-5.49-24.02-5.49
	c-8.62,0-16.8,1.97-24.04,5.49c-5.17,2.51-9.91,5.83-14.03,9.79L351.85,153.72z M382.92,178.16l6.99,5.49l6.99-5.49
	c-2.11-0.96-4.48-1.51-6.99-1.51C387.43,176.65,385.03,177.19,382.92,178.16z M473.85,137.24l-29.7,23.37l-0.32,0.24l-0.16,0.1
	l-29.7,23.39l-0.16,0.12l-19.01,14.97c-2.73,2.23-6.75,2.35-9.63,0.1l-19.13-15.05l-0.16-0.12l-29.85-23.49H336l-0.32-0.24
	l-29.87-23.49c-3.36-2.63-3.92-7.48-1.31-10.81c10.13-12.84,23.11-23.37,38-30.61c14.33-6.95,30.43-10.87,47.37-10.87
	c16.94,0,33.04,3.92,47.37,10.87c14.77,7.17,27.67,17.61,37.76,30.31c3.03,3.6,2.31,8.54-1.21,11.25L473.85,137.24z M280.13,163.93
	c-1.31-6.85-2.01-13.93-2.01-21.14c0-9.75,1.25-19.21,3.6-28.24H57.2c-4.8,0-9.16,1.97-12.32,5.1c-3.18,3.18-5.15,7.56-5.15,12.34
	v31.94L280.13,163.93z M174.09,146.95c-4.26,0-7.72-3.46-7.72-7.72s3.46-7.72,7.72-7.72h15.98c4.26,0,7.72,3.46,7.72,7.72
	s-3.46,7.72-7.72,7.72H174.09z M122.88,146.95c-4.26,0-7.72-3.46-7.72-7.72s3.46-7.72,7.72-7.72h15.98c4.26,0,7.72,3.46,7.72,7.72
	s-3.46,7.72-7.72,7.72H122.88z M71.66,146.95c-4.26,0-7.72-3.46-7.72-7.72s3.46-7.72,7.72-7.72h15.98c4.26,0,7.72,3.46,7.72,7.72
	s-3.46,7.72-7.72,7.72H71.66z M294.18,383.78c0.82,2.37,1.29,4.92,1.29,7.56c0,6.35-2.57,12.1-6.75,16.26l-0.52,0.48
	c-4.12,3.9-9.69,6.27-15.74,6.27c-6.31,0-12.06-2.57-16.24-6.75l-0.04-0.04c-4.16-4.16-6.71-9.89-6.71-16.2
	c0-2.63,0.44-5.21,1.29-7.56h-23.23c0.82,2.37,1.29,4.92,1.29,7.56c0,6.35-2.57,12.1-6.75,16.26l-0.52,0.48
	c-4.12,3.9-9.69,6.27-15.74,6.27c-6.31,0-12.06-2.57-16.24-6.75l-0.04-0.04c-4.16-4.16-6.71-9.89-6.71-16.2
	c0-2.63,0.44-5.21,1.29-7.56h-13.14c-5.93,0-11.33-2.43-15.27-6.35c-3.96-3.92-6.37-9.33-6.37-15.27s2.43-11.38,6.35-15.29
	c3.92-3.92,9.35-6.35,15.29-6.35h4.72l-8.88-35.63l-0.04-0.2l-11.31-45.38l-0.04-0.2L147.63,228h-21.18c-4.26,0-7.72-3.46-7.72-7.72
	c0-4.26,3.46-7.72,7.72-7.72h27.19c3.46,0.02,6.61,2.37,7.48,5.89l7.82,31.35l71.41-0.04c4.26,0,7.72,3.46,7.72,7.72
	c0,4.26-3.46,7.72-7.72,7.72h-67.57l8.94,35.83l9.85,39.49h95.2l18.79-75.33h-31.47c-4.26,0-7.72-3.46-7.72-7.72
	c0-4.26,3.46-7.72,7.72-7.72h41.32c4.26,0,7.72,3.46,7.72,7.72c0,0.84-0.14,1.67-0.38,2.43l-22.49,90.16
	c-0.86,3.52-4.02,5.87-7.48,5.87H282.1l-0.56,0.04H170.98c-1.69,0-3.26,0.7-4.36,1.83c-1.13,1.13-1.83,2.69-1.83,4.36
	c0,1.69,0.7,3.26,1.83,4.36c1.11,1.13,2.67,1.83,4.36,1.83h144.54c4.26,0,7.72,3.46,7.72,7.72s-3.46,7.72-7.72,7.72h-21.26
	L294.18,383.78z M277.8,386.01c-1.31-1.31-3.16-2.17-5.17-2.23h-0.4c-2.01,0.04-3.82,0.9-5.17,2.23c-1.37,1.35-2.23,3.24-2.23,5.35
	c0,2.09,0.82,4,2.19,5.35c1.37,1.37,3.28,2.23,5.37,2.23c1.97,0,3.76-0.72,5.06-1.91l0.3-0.3c1.37-1.37,2.23-3.26,2.23-5.35
	s-0.86-3.98-2.23-5.35L277.8,386.01z M211.13,385.99c-1.31-1.31-3.14-2.15-5.17-2.21h-0.4c-2.01,0.04-3.82,0.9-5.17,2.23
	c-1.37,1.35-2.23,3.24-2.23,5.35c0,2.09,0.82,4,2.19,5.35c1.37,1.37,3.28,2.23,5.37,2.23c1.97,0,3.76-0.72,5.06-1.91l0.3-0.3
	c1.37-1.37,2.23-3.26,2.23-5.35s-0.86-3.98-2.23-5.37L211.13,385.99z M323.14,447.55c4.26,0,7.72,3.46,7.72,7.72
	s-3.46,7.72-7.72,7.72H57.23c-9.02,0-17.26-3.7-23.21-9.65c-5.97-5.99-9.69-14.21-9.69-23.25V324.79c0-4.26,3.46-7.72,7.72-7.72
	s7.72,3.46,7.72,7.72v105.29c0,4.8,1.97,9.18,5.1,12.34c3.16,3.16,7.54,5.1,12.34,5.1h265.91L323.14,447.55z M39.76,291.07
	c0,4.26-3.46,7.72-7.72,7.72s-7.72-3.46-7.72-7.72v-33.74c0-4.26,3.46-7.72,7.72-7.72s7.72,3.46,7.72,7.72V291.07z"/>
</svg>
